HIERARCHY
ROOT root
{
	OFFSET 0.000000 0.000000 0.000000
	CHANNELS 6 Xposition Yposition Zposition Zrotation Yrotation Xrotation
	JOINT lhip
	{
		OFFSET 0.058581 -0.082280 -0.017664
		CHANNELS 3 Zrotation Yrotation Xrotation
		JOINT lknee
		{
			OFFSET 0.043451 -0.386469 0.008037
			CHANNELS 3 Zrotation Yrotation Xrotation
			JOINT lankle
			{
				OFFSET -0.014790 -0.426874 -0.037428
				CHANNELS 3 Zrotation Yrotation Xrotation
				JOINT ltoe
				{
					OFFSET 0.041054 -0.060286 0.122042
					CHANNELS 3 Zrotation Yrotation Xrotation
					End Site
					{
						OFFSET 0.000000 0.000000 0.000000
					}
				}
			}
		}
	}
	JOINT rhip
	{
		OFFSET -0.060310 -0.090513 -0.013543
		CHANNELS 3 Zrotation Yrotation Xrotation
		JOINT rknee
		{
			OFFSET -0.043257 -0.383688 -0.004843
			CHANNELS 3 Zrotation Yrotation Xrotation
			JOINT rankle
			{
				OFFSET 0.019056 -0.420046 -0.034562
				CHANNELS 3 Zrotation Yrotation Xrotation
				JOINT rtoe
				{
					OFFSET -0.034840 -0.062106 0.130323
					CHANNELS 3 Zrotation Yrotation Xrotation
					End Site
					{
						OFFSET 0.000000 0.000000 0.000000
					}
				}
			}
		}
	}
	JOINT lowerback
	{
		OFFSET 0.004439 0.124404 -0.038385
		CHANNELS 3 Zrotation Yrotation Xrotation
		JOINT upperback
		{
			OFFSET 0.004488 0.137956 0.026820
			CHANNELS 3 Zrotation Yrotation Xrotation
			JOINT chest
			{
				OFFSET -0.002265 0.056032 0.002855
				CHANNELS 3 Zrotation Yrotation Xrotation
				JOINT lowerneck
				{
					OFFSET -0.013390 0.211636 -0.033468
					CHANNELS 3 Zrotation Yrotation Xrotation
					JOINT upperneck
					{
						OFFSET 0.010113 0.088937 0.050410
						CHANNELS 3 Zrotation Yrotation Xrotation
						End Site
						{
							OFFSET 0.000000 0.000000 0.000000
						}
					}
				}
				JOINT lclavicle
				{
					OFFSET 0.071702 0.114000 -0.018898
					CHANNELS 3 Zrotation Yrotation Xrotation
					JOINT lshoulder
					{
						OFFSET 0.122921 0.045205 -0.019046
						CHANNELS 3 Zrotation Yrotation Xrotation
						JOINT lelbow
						{
							OFFSET 0.255332 -0.015649 -0.022946
							CHANNELS 3 Zrotation Yrotation Xrotation
							JOINT lwrist
							{
								OFFSET 0.265709 0.012698 -0.007375
								CHANNELS 3 Zrotation Yrotation Xrotation
								End Site
								{
									OFFSET 0.000000 0.000000 0.000000
								}
							}
						}
					}
				}
				JOINT rclavicle
				{
					OFFSET -0.082954 0.112472 -0.023707
					CHANNELS 3 Zrotation Yrotation Xrotation
					JOINT rshoulder
					{
						OFFSET -0.113228 0.046853 -0.008472
						CHANNELS 3 Zrotation Yrotation Xrotation
						JOINT relbow
						{
							OFFSET -0.260127 -0.014369 -0.031269
							CHANNELS 3 Zrotation Yrotation Xrotation
							JOINT rwrist
							{
								OFFSET -0.269108 0.006794 -0.006027
								CHANNELS 3 Zrotation Yrotation Xrotation
								End Site
								{
									OFFSET 0.000000 0.000000 0.000000
								}
							}
						}
					}
				}
			}
		}
	}
}
MOTION
Frames: 5
Frame Time: 0.033333
0.709598 0.975518 0.601508 112.434604 -3.358271 49.436689 24.344027 6.648649 -41.011523 -20.946848 -7.579346 80.552942 -17.224860 -1.415100 -13.936843 0.000000 -0.000000 0.000000 -23.729825 -0.310125 -39.744094 -0.798986 2.441345 107.510493 8.934213 -4.683469 -25.926744 0.000000 -0.000000 0.000000 -7.960031 -0.768772 73.698444 6.101211 -15.302058 2.558328 3.241581 -9.376627 1.864822 4.527790 -30.256913 12.093820 29.789257 -28.530775 -15.232320 -7.125652 -7.632657 5.027355 -14.944038 13.545608 -17.815088 52.616874 -63.987659 -38.332964 2.650993 -12.672453 -7.960904 5.267396 0.679195 -9.385590 63.323614 -21.398953 -13.410526 -128.319373 60.417679 -97.940225 17.509879 -0.414393 8.769474 
0.713178 0.980324 0.601752 110.599897 -3.072524 50.848559 24.192855 6.949045 -42.158726 -21.396004 -4.485405 91.151447 -15.550182 -2.504874 -16.768059 0.000000 -0.000000 0.000000 -22.735305 0.219379 -41.384975 1.395321 2.625194 107.212806 8.647164 -3.816563 -25.545780 0.000000 -0.000000 0.000000 -7.770259 -1.042792 73.368319 5.715769 -13.967629 1.376431 2.959988 -9.048219 1.423360 5.408074 -31.682978 10.103240 29.587019 -28.485459 -13.961660 -7.997406 -7.974274 5.352181 -16.040408 12.385723 -16.954499 61.591203 -67.119547 -45.849288 4.714624 -12.551852 -9.830692 5.970426 3.795834 -9.292767 63.398929 -17.629378 -11.163243 -119.089917 63.488296 -91.587756 15.008852 1.132518 6.128765 
0.715440 0.986407 0.601148 108.538006 -2.093148 52.904333 25.365611 6.266189 -42.388388 -18.028999 -0.846143 100.264224 -12.816564 -0.092002 -20.867189 0.000000 -0.000000 0.000000 -22.991746 2.364134 -46.733951 1.377688 1.531820 109.434830 10.200438 -0.679822 -19.176187 0.000000 -0.000000 0.000000 -8.011515 -1.726497 73.500020 5.543402 -11.727729 -0.218239 3.041814 -8.503641 1.148691 7.540150 -32.905905 7.323162 29.829839 -29.489223 -14.214146 -7.775659 -8.003466 5.682908 -17.764450 10.741998 -15.114335 70.527312 -68.732793 -53.329874 4.086573 -13.191467 -10.621473 5.375368 6.386867 -9.165467 64.194650 -13.844823 -7.999752 -105.460953 65.624360 -79.303348 13.974829 1.521878 4.244460 
0.720329 0.990203 0.599578 107.374682 -0.294785 55.251089 25.573221 5.850347 -42.016903 -15.546435 -1.787342 104.010191 -10.723432 4.021828 -27.164754 0.000000 -0.000000 0.000000 -22.842768 3.479500 -51.800638 1.727024 0.372009 110.305939 10.183659 -1.849809 -16.824821 0.000000 -0.000000 0.000000 -8.222453 -2.193432 73.180181 5.852982 -10.040084 -1.038664 3.800373 -8.351761 0.421017 8.441627 -35.056938 7.407698 30.584365 -29.165393 -15.278980 -7.912740 -8.342942 7.426522 -18.017085 10.394927 -14.534667 77.984474 -70.837708 -58.885108 4.325756 -12.663760 -10.760431 5.169848 8.846491 -7.775790 64.445508 -11.029225 -6.181928 -90.657077 69.212852 -65.357686 11.442931 1.791855 3.518028 
0.726472 0.992240 0.597210 107.168449 1.098992 57.095940 25.206495 5.429974 -41.145166 -16.948248 -4.642920 102.765449 -9.196676 6.790419 -33.838332 0.000000 -0.000000 0.000000 -22.674443 3.405571 -53.945905 0.300749 0.551037 108.615023 9.691135 -4.981124 -18.137761 0.000000 -0.000000 0.000000 -8.430663 -2.241573 73.174784 5.954481 -9.494086 -1.846805 4.260488 -8.663632 0.491845 10.233198 -36.183224 6.450221 31.690031 -30.292320 -15.013111 -7.968191 -8.500483 8.764642 -16.645360 10.497890 -14.053386 83.379626 -71.836654 -62.993838 5.558609 -13.247748 -10.919464 5.791996 10.771860 -7.489436 64.204396 -9.766583 -3.570336 -72.133985 72.022480 -47.323433 10.362745 2.586904 2.676922 
